# xmcd
#
# Track frame offsets: 
#        150
#        12315
#        26723
#        38225
#        49099
#        60731
#        73969
#        87249
#        104310
#        117934
#
# Disc length: 1874 seconds
#
# Revision: 0
# Processed by: cddbd v1.5.2PL0 Copyright (c) Steve Scherf et al.
# Submitted via: ExactAudioCopy v1.3
#
DISCID=8707500a
DTITLE=Lightnin' Slim - High and Low Down
DYEAR=2013
DGENRE=Blues
TTITLE0=Rooster Blues
TTITLE1=Things I Used To Do
TTITLE2=Bad Luck Blues
TTITLE3=My Babe
TTITLE4=G.I. Blues
TTITLE5=Oh Baby
TTITLE6=That's All Right
TTITLE7=Crazy 'Bout You Baby
TTITLE8=Goodmorning Heartaches
TTITLE9=Voodoo Blues
EXTD=
EXTT0=
EXTT1=
EXTT2=
EXTT3=
EXTT4=
EXTT5=
EXTT6=
EXTT7=
EXTT8=
EXTT9=
PLAYORDER=
